<svg xmlns="http://www.w3.org/2000/svg" viewBox="0 0 1600 700" width="1600" height="700">
  <defs>
    <linearGradient id="g1" x1="0" y1="0" x2="1" y2="1">
      <stop offset="0%" stop-color="#0796D1"/><stop offset="100%" stop-color="#06D1A1"/>
    </linearGradient>
    <radialGradient id="wash1" cx="0.25" cy="0.1" r="0.9">
      <stop offset="0" stop-color="#06D1A1" stop-opacity=".18"/><stop offset="1" stop-color="#06D1A1" stop-opacity="0"/>
    </radialGradient>
    <radialGradient id="wash2" cx="0.8" cy="0.9" r="0.9">
      <stop offset="0" stop-color="#0796D1" stop-opacity=".15"/><stop offset="1" stop-color="#0796D1" stop-opacity="0"/>
    </radialGradient>
    <filter id="blur"><feGaussianBlur stdDeviation="8"/></filter>
  </defs>
  <rect width="100%" height="100%" fill="white"/>
  <rect width="100%" height="100%" fill="url(#wash1)"/>
  <rect width="100%" height="100%" fill="url(#wash2)"/>
  <!-- big tooth outline -->
  <path d="M1150,150c150,0,240,110,240,220c0,100-65,228-110,282c-20,22-55,24-72,3c-32-42-48-104-59-156c-11,52-27,114-59,156c-17,21-52,19-72-3c-45-54-110-182-110-282c0-110,90-220,240-220Z"
        fill="none" stroke="url(#g1)" stroke-width="6" opacity=".30"/>
  <!-- braces bar -->
  <g opacity=".35" filter="url(#blur)">
    <rect x="900" y="430" width="560" height="56" rx="18" fill="none" stroke="url(#g1)" stroke-width="4"/>
    <line x1="1040" y1="430" x2="1040" y2="486" stroke="url(#g1)" stroke-width="4"/>
    <line x1="1320" y1="430" x2="1320" y2="486" stroke="url(#g1)" stroke-width="4"/>
    <line x1="1180" y1="430" x2="1200" y2="486" stroke="url(#g1)" stroke-width="4"/>
  </g>
  <!-- x-ray grid tile -->
  <g opacity=".22" filter="url(#blur)">
    <rect x="1280" y="110" width="220" height="160" fill="none" stroke="url(#g1)" stroke-width="4"/>
    <line x1="1280" y1="190" x2="1500" y2="190" stroke="url(#g1)" stroke-width="4"/>
    <line x1="1390" y1="110" x2="1390" y2="270" stroke="url(#g1)" stroke-width="4"/>
  </g>
</svg>
